<svg width="24" height="24" viewBox="0 0 24 24" fill="none" xmlns="http://www.w3.org/2000/svg">
<path d="M2.75 19.4H5.95C6.22614 19.4 6.45 19.1761 6.45 18.9V16.2C6.45 15.9238 6.67386 15.7 6.95 15.7L9.64938 15.7C9.92546 15.7 10.1493 15.4762 10.1494 15.2001L10.1502 12.4998C10.1503 12.2238 10.3742 12 10.6502 12H13.3504C13.6265 12 13.8504 11.7761 13.8504 11.5V8.8C13.8504 8.52386 14.0742 8.3 14.3504 8.3L17.0496 8.29999C17.3258 8.29999 17.5496 8.07613 17.5496 7.79999V5.09999C17.5496 4.82384 17.7735 4.59999 18.0496 4.59999L21.25 4.59998" stroke="#2A2D34" stroke-width="1.5" stroke-linecap="round"/>
</svg>
