<svg width="16" height="16" viewBox="0 0 16 16" fill="none" xmlns="http://www.w3.org/2000/svg">
<path d="M15.8317 15.0244L11.5999 10.7924C12.5605 9.64961 13.1419 8.1775 13.1419 6.57119C13.1419 2.94787 10.1943 0 6.57093 0C2.94776 0.000714204 0 2.94842 0 6.57173C0 10.195 2.94758 13.1429 6.57093 13.1429C8.17723 13.1429 9.64924 12.5615 10.792 11.6009L15.0238 15.8329C15.1353 15.9443 15.2817 16 15.4281 16C15.5745 16 15.7209 15.9443 15.8323 15.8329C16.0559 15.6093 16.0553 15.248 15.8317 15.0244ZM1.14301 6.57192C1.14301 3.57925 3.57845 1.14353 6.57119 1.14353C9.56393 1.14353 11.9994 3.57906 11.9994 6.57192C11.9994 9.56477 9.56393 12.0003 6.57119 12.0003C3.57845 12.0003 1.14301 9.56477 1.14301 6.57192Z" fill="white"/>
</svg>
