<svg width="24" height="24" viewBox="0 0 24 24" fill="none" xmlns="http://www.w3.org/2000/svg">
<path fill-rule="evenodd" clip-rule="evenodd" d="M12.0013 3.15039C8.2662 3.15039 5.23828 6.17831 5.23828 9.91343C5.23828 10.9909 5.64703 12.221 6.32504 13.5016C6.99794 14.7727 7.90423 16.0345 8.82527 17.1602C9.74433 18.2835 10.6655 19.256 11.3577 19.9483C11.6058 20.1964 11.8239 20.4079 12.0013 20.5769C12.1787 20.4079 12.3968 20.1964 12.6449 19.9483C13.3372 19.256 14.2583 18.2835 15.1774 17.1602C16.0984 16.0345 17.0047 14.7727 17.6776 13.5016C18.3556 12.221 18.7644 10.9909 18.7644 9.91343C18.7644 6.17831 15.7365 3.15039 12.0013 3.15039ZM12.0013 21.6004C11.5031 22.1609 11.5028 22.1607 11.5028 22.1607L11.496 22.1546L11.4782 22.1386C11.4688 22.1302 11.4569 22.1195 11.4425 22.1064C11.4333 22.0981 11.423 22.0888 11.4118 22.0786C11.3544 22.0263 11.2712 21.9497 11.1658 21.8511C10.9552 21.6538 10.6557 21.3676 10.2971 21.009C9.58066 20.2926 8.62354 19.2825 7.66434 18.1101C6.70712 16.9402 5.73515 15.5933 4.99935 14.2035C4.26867 12.8233 3.73828 11.3403 3.73828 9.91343C3.73828 5.34988 7.43777 1.65039 12.0013 1.65039C16.5649 1.65039 20.2644 5.34988 20.2644 9.91343C20.2644 11.3403 19.734 12.8233 19.0033 14.2035C18.2675 15.5933 17.2955 16.9402 16.3383 18.1101C15.3791 19.2825 14.422 20.2926 13.7056 21.009C13.3469 21.3676 13.0475 21.6538 12.8368 21.8511C12.7315 21.9497 12.6482 22.0263 12.5908 22.0786C12.5621 22.1047 12.5398 22.1248 12.5245 22.1386L12.5067 22.1546L12.5003 22.1603C12.5003 22.1603 12.4996 22.1609 12.0013 21.6004ZM12.0013 21.6004L12.4996 22.1609L12.0013 22.6039L11.5028 22.1607L12.0013 21.6004ZM12.0016 7.95054C11.0904 7.95054 10.3516 8.68927 10.3516 9.60054C10.3516 10.5118 11.0904 11.2505 12.0016 11.2505C12.9129 11.2505 13.6516 10.5118 13.6516 9.60054C13.6516 8.68927 12.9129 7.95054 12.0016 7.95054ZM8.85163 9.60054C8.85163 7.86085 10.2619 6.45054 12.0016 6.45054C13.7413 6.45054 15.1516 7.86085 15.1516 9.60054C15.1516 11.3402 13.7413 12.7505 12.0016 12.7505C10.2619 12.7505 8.85163 11.3402 8.85163 9.60054Z" fill="#2A2D34"/>
</svg>
