<svg width="16" height="16" viewBox="0 0 16 16" fill="none" xmlns="http://www.w3.org/2000/svg">
<path fill-rule="evenodd" clip-rule="evenodd" d="M8.00088 2.10059C5.5108 2.10059 3.49219 4.1192 3.49219 6.60928C3.49219 7.32762 3.76469 8.14764 4.21669 9.00142C4.66529 9.84878 5.26948 10.69 5.88351 11.4405C6.49622 12.1893 7.11031 12.8377 7.57183 13.2992C7.73721 13.4646 7.88262 13.6056 8.00088 13.7182C8.11914 13.6056 8.26456 13.4646 8.42994 13.2992C8.89146 12.8377 9.50555 12.1893 10.1183 11.4405C10.7323 10.69 11.3365 9.84878 11.7851 9.00142C12.2371 8.14764 12.5096 7.32762 12.5096 6.60928C12.5096 4.1192 10.491 2.10059 8.00088 2.10059ZM8.00088 14.4006C7.6687 14.7743 7.66851 14.7741 7.66851 14.7741L7.66397 14.7701L7.65211 14.7594C7.64587 14.7538 7.63791 14.7466 7.62832 14.7379C7.62217 14.7324 7.61536 14.7262 7.60789 14.7194C7.56961 14.6845 7.51413 14.6335 7.44389 14.5677C7.30345 14.4362 7.10382 14.2454 6.86472 14.0063C6.38711 13.5287 5.74903 12.8553 5.10956 12.0737C4.47141 11.2938 3.82343 10.3959 3.3329 9.46931C2.84578 8.54919 2.49219 7.56051 2.49219 6.60928C2.49219 3.56691 4.95851 1.10059 8.00088 1.10059C11.0433 1.10059 13.5096 3.56691 13.5096 6.60928C13.5096 7.56051 13.156 8.54919 12.6689 9.46931C12.1783 10.3959 11.5304 11.2938 10.8922 12.0737C10.2527 12.8553 9.61466 13.5287 9.13705 14.0063C8.89794 14.2454 8.69832 14.4362 8.55788 14.5677C8.48764 14.6335 8.43215 14.6845 8.39388 14.7194C8.37474 14.7368 8.3599 14.7502 8.34966 14.7594L8.3378 14.7701L8.33357 14.7738C8.33357 14.7738 8.33307 14.7743 8.00088 14.4006ZM8.00088 14.4006L8.33307 14.7743L8.00088 15.0696L7.66851 14.7741L8.00088 14.4006ZM8.00109 5.30069C7.39357 5.30069 6.90109 5.79317 6.90109 6.40069C6.90109 7.0082 7.39358 7.50069 8.00109 7.50069C8.6086 7.50069 9.10109 7.0082 9.10109 6.40069C9.10109 5.79317 8.6086 5.30069 8.00109 5.30069ZM5.90109 6.40069C5.90109 5.24089 6.84129 4.30069 8.00109 4.30069C9.16089 4.30069 10.1011 5.24089 10.1011 6.40069C10.1011 7.56048 9.16089 8.50069 8.00109 8.50069C6.84129 8.50069 5.90109 7.56048 5.90109 6.40069Z" fill="#727272"/>
</svg>
