<svg width="16" height="16" viewBox="0 0 16 16" fill="none" xmlns="http://www.w3.org/2000/svg">
<path d="M1.83301 12.9333H3.96634C4.15044 12.9333 4.29967 12.7841 4.29967 12.6V10.8C4.29967 10.6159 4.44891 10.4666 4.63301 10.4666L6.43259 10.4666C6.61665 10.4666 6.76587 10.3175 6.76593 10.1334L6.7665 8.33323C6.76655 8.14917 6.91578 8 7.09983 8H8.89993C9.08403 8 9.23327 7.85076 9.23327 7.66667V5.86667C9.23327 5.68257 9.38251 5.53333 9.5666 5.53333L11.3661 5.53333C11.5502 5.53333 11.6994 5.38409 11.6994 5.19999V3.39999C11.6994 3.2159 11.8487 3.06666 12.0327 3.06666L14.1663 3.06665" stroke="#727272" stroke-linecap="round"/>
</svg>
